<?xml version="1.0" encoding="utf-8"?>
<!-- Generator: Adobe Illustrator 18.1.1, SVG Export Plug-In . SVG Version: 6.00 Build 0)  -->
<svg version="1.1" id="Layer_1" xmlns="http://www.w3.org/2000/svg" xmlns:xlink="http://www.w3.org/1999/xlink" x="0px" y="0px"
	 viewBox="0 0 288 103.3" enable-background="new 0 0 288 103.3" xml:space="preserve">
<path fill="#6D6E71" d="M31.1,35.2l-0.7,0.1l-10-25l-9.8,25l-0.7-0.1L1.2,3.1h3.5l6.3,23.3l9.4-23.6h0.4l9.4,23.4l6.2-23.2h3.5
	L31.1,35.2z"/>
<path fill="#6D6E71" d="M43.9,34.7V3.1h3.5v31.6H43.9z"/>
<path fill="#6D6E71" d="M61.3,35.2c-3.6,0-6.4-1.1-9.2-2.9l1.7-3c2.4,1.7,5.2,2.8,7.6,2.8c4.1,0,6-2.7,6-5.5c0-2.8-1.1-4.4-6.3-6.7
	c-5.5-2.4-7.5-4.9-7.5-8.7c0-4.6,3.9-8.6,9.7-8.6c2.7,0,5.2,0.9,7,2.2l-1.6,2.9c-1.6-1.1-3.6-1.9-5.7-1.9c-4,0-6,2.4-6,5.3
	c0,2.2,1.5,4,5.4,5.7c6.6,3,8.5,5.2,8.5,9.4C70.9,31.3,66.7,35.2,61.3,35.2z"/>
<path fill="#6D6E71" d="M82.9,35.2c-3.6,0-6.4-1.1-9.1-2.9l1.7-3c2.4,1.7,5.2,2.8,7.6,2.8c4.1,0,6-2.7,6-5.5c0-2.8-1.1-4.4-6.3-6.7
	c-5.5-2.4-7.5-4.9-7.5-8.7c0-4.6,3.9-8.6,9.7-8.6c2.7,0,5.2,0.9,7,2.2l-1.6,2.9c-1.6-1.1-3.6-1.9-5.7-1.9c-4,0-6,2.4-6,5.3
	c0,2.2,1.5,4,5.4,5.7c6.6,3,8.5,5.2,8.5,9.4C92.6,31.3,88.4,35.2,82.9,35.2z"/>
<path fill="#6D6E71" d="M119.4,34.7l-3.8-8.8h-14.2l-3.8,8.8h-3.6l14.2-32.2h0.6l14.2,32.2H119.4z M108.6,9.4L102.7,23h11.6
	L108.6,9.4z"/>
<path fill="#6D6E71" d="M147.1,34.7V20.2h-16.9v14.5h-3.5V3.1h3.5v14h16.9v-14h3.5v31.6H147.1z"/>
<path fill="#6D6E71" d="M157.7,34.7V3.1h3.5v31.6H157.7z"/>
<path fill="#6D6E71" d="M184,35.2c-9.8,0-16.8-6.8-16.8-16.3c0-9.3,7.2-16.4,16.8-16.4c4.2,0,7.9,1.5,10.4,3L193,8.5
	c-2.7-1.6-6.3-2.7-9.3-2.7c-8,0-12.7,5.7-12.7,13.1c0,7.5,5,13.1,13,13.1c3,0,6.6-1.2,9.3-2.7l1.1,2.9
	C191.9,33.7,188.2,35.2,184,35.2z"/>
<path fill="#6D6E71" d="M217.4,34.7l-8.1-16.8l-6.8,9.4v7.4h-3.5V3.1h3.5v19.3l13.8-19.3h3.7l-8.8,12.2l10.1,19.4H217.4z"/>
<path fill="#6D6E71" d="M238.2,35.2c-8.5,0-15.6-6.8-15.6-16.3c0-9.5,7.4-16.4,15.9-16.4c8.5,0,15.6,6.9,15.6,16.4
	C254.1,28.4,246.7,35.2,238.2,35.2z M238.3,5.6c-7,0-12,5.8-12,13.2c0,7.5,5,13.2,12,13.2c7,0,12-5.8,12-13.2
	C250.3,11.4,245.3,5.6,238.3,5.6z"/>
<path fill="#6D6E71" d="M283.9,35.3l-20.5-24.6v24h-3.4V2.6l0.7-0.2l20.3,24.2V3.1h3.5v32.1L283.9,35.3z"/>
<path fill="#14426F" d="M26.8,102.3c-14.6,0-25.2-10.2-25.2-24.5c0-14,10.8-24.5,25.2-24.5c6.3,0,11.9,2.2,15.7,4.5l-2.1,4.4
	c-4-2.3-9.4-4.1-14-4.1c-12,0-19.1,8.5-19.1,19.7c0,11.2,7.6,19.6,19.5,19.6c4.5,0,10-1.7,14-4.1l1.7,4.4
	C38.7,100.1,33.1,102.3,26.8,102.3"/>
<path fill="#14426F" d="M69.6,80.5v21h-5.2V80.4L47.8,54.1h5.8l13.6,22l13.4-22h5.7L69.6,80.5z"/>
<path fill="#14426F" d="M114.4,102.3c-14.6,0-25.2-10.2-25.2-24.5c0-14,10.8-24.5,25.2-24.5c6.3,0,11.9,2.2,15.7,4.5l-2.1,4.4
	c-4-2.3-9.4-4.1-14-4.1c-12,0-19.1,8.5-19.1,19.7c0,11.2,7.6,19.6,19.5,19.6c4.5,0,10-1.7,14-4.1l1.7,4.4
	C126.3,100.1,120.7,102.3,114.4,102.3"/>
<path fill="#14426F" d="M139.3,101.5V54.1h5.2v42.8h22.6v4.7H139.3z"/>
<path fill="#14426F" d="M175.7,101.5V54.1h27.8v4.7h-22.6v16.4h20.3v4.7h-20.3v17.1h22.6v4.7H175.7z"/>
<path fill="#14426F" d="M230.2,53.9c8.7,1,14.2,6.7,14.2,14.1c0,6.6-3.7,11.6-10.4,13.7l13.8,19.8h-6.3l-12.6-18.7
	c-1,0.1-2.1,0.1-3.2,0.1c-1.6,0-3.8-0.1-5.4-0.1v18.7h-5.2V53.9 M220.4,58.6v19.6c1.5,0.2,3.9,0.3,5.8,0.3c8.9,0,12.7-4.1,12.7-10.2
	c0-4.9-3.5-8.9-9.1-9.7"/>
<path fill="#14426F" d="M271.8,80.5v21h-5.2V80.4L250,54.1h5.8l13.6,22l13.4-22h5.7L271.8,80.5z"/>
<path fill="none" stroke="#ED1C24" stroke-width="0.1602" stroke-miterlimit="10" d="M140.7,7.8"/>
</svg>
