<?xml version="1.0" encoding="utf-8"?>
<!-- Generator: Adobe Illustrator 18.1.1, SVG Export Plug-In . SVG Version: 6.00 Build 0)  -->
<svg version="1.1" id="Layer_1" xmlns="http://www.w3.org/2000/svg" xmlns:xlink="http://www.w3.org/1999/xlink" x="0px" y="0px"
	 viewBox="0 0 493.1 35.3" enable-background="new 0 0 493.1 35.3" xml:space="preserve">
<path fill="#6D6E71" d="M31.1,34.2l-0.7,0.1l-10-25l-9.8,25l-0.7-0.1L1.2,2.1h3.5l6.3,23.3l9.4-23.6h0.4l9.4,23.4l6.2-23.2h3.5
	L31.1,34.2z"/>
<path fill="#6D6E71" d="M43.9,33.7V2.1h3.5v31.6H43.9z"/>
<path fill="#6D6E71" d="M61.3,34.2c-3.6,0-6.4-1.1-9.2-2.9l1.7-3c2.4,1.7,5.2,2.8,7.6,2.8c4.1,0,6-2.7,6-5.5c0-2.8-1.1-4.4-6.3-6.7
	c-5.5-2.4-7.5-4.9-7.5-8.7c0-4.6,3.9-8.6,9.7-8.6c2.7,0,5.2,0.9,7,2.2l-1.6,2.9c-1.6-1.1-3.6-1.9-5.7-1.9c-4,0-6,2.4-6,5.3
	c0,2.2,1.5,4,5.4,5.7c6.6,3,8.5,5.2,8.5,9.4C70.9,30.3,66.7,34.2,61.3,34.2z"/>
<path fill="#6D6E71" d="M82.9,34.2c-3.6,0-6.4-1.1-9.1-2.9l1.7-3c2.4,1.7,5.2,2.8,7.6,2.8c4.1,0,6-2.7,6-5.5c0-2.8-1.1-4.4-6.3-6.7
	c-5.5-2.4-7.5-4.9-7.5-8.7c0-4.6,3.9-8.6,9.7-8.6c2.7,0,5.2,0.9,7,2.2l-1.6,2.9c-1.6-1.1-3.6-1.9-5.7-1.9c-4,0-6,2.4-6,5.3
	c0,2.2,1.5,4,5.4,5.7c6.6,3,8.5,5.2,8.5,9.4C92.6,30.3,88.4,34.2,82.9,34.2z"/>
<path fill="#6D6E71" d="M119.4,33.7l-3.8-8.8h-14.2l-3.8,8.8h-3.6l14.2-32.2h0.6l14.2,32.2H119.4z M108.6,8.4L102.7,22h11.6
	L108.6,8.4z"/>
<path fill="#6D6E71" d="M147.1,33.7V19.2h-16.9v14.5h-3.5V2.1h3.5v14h16.9v-14h3.5v31.6H147.1z"/>
<path fill="#6D6E71" d="M157.7,33.7V2.1h3.5v31.6H157.7z"/>
<path fill="#6D6E71" d="M184,34.2c-9.8,0-16.8-6.8-16.8-16.3c0-9.3,7.2-16.4,16.8-16.4c4.2,0,7.9,1.5,10.4,3L193,7.5
	c-2.7-1.6-6.3-2.7-9.3-2.7c-8,0-12.7,5.7-12.7,13.1c0,7.5,5,13.1,13,13.1c3,0,6.6-1.2,9.3-2.7l1.1,2.9
	C191.9,32.7,188.2,34.2,184,34.2z"/>
<path fill="#6D6E71" d="M217.4,33.7l-8.1-16.8l-6.8,9.4v7.4h-3.5V2.1h3.5v19.3l13.8-19.3h3.7l-8.8,12.2l10.1,19.4H217.4z"/>
<path fill="#6D6E71" d="M238.2,34.2c-8.5,0-15.6-6.8-15.6-16.3c0-9.5,7.4-16.4,15.9-16.4c8.5,0,15.6,6.9,15.6,16.4
	C254.1,27.4,246.7,34.2,238.2,34.2z M238.3,4.6c-7,0-12,5.8-12,13.2c0,7.5,5,13.2,12,13.2c7,0,12-5.8,12-13.2
	C250.3,10.4,245.3,4.6,238.3,4.6z"/>
<path fill="#6D6E71" d="M283.9,34.3L263.3,9.7v24h-3.4V1.6l0.7-0.2l20.3,24.2V2.1h3.5v32.1L283.9,34.3z"/>
<path fill="#14426F" d="M321.2,33.9c-9.5,0-16.3-6.6-16.3-15.9c0-9.1,7-15.9,16.3-15.9c4.1,0,7.7,1.4,10.2,2.9l-1.4,2.9
	c-2.6-1.5-6.1-2.6-9.1-2.6c-7.8,0-12.4,5.5-12.4,12.8c0,7.3,4.9,12.7,12.7,12.7c2.9,0,6.5-1.1,9.1-2.6l1.1,2.9
	C328.9,32.5,325.2,33.9,321.2,33.9"/>
<path fill="#14426F" d="M349,19.8v13.7h-3.4V19.7L334.8,2.6h3.8l8.8,14.3l8.7-14.3h3.7L349,19.8z"/>
<path fill="#14426F" d="M378.1,33.9c-9.5,0-16.3-6.6-16.3-15.9c0-9.1,7-15.9,16.3-15.9c4.1,0,7.7,1.4,10.2,2.9l-1.4,2.9
	c-2.6-1.5-6.1-2.6-9.1-2.6c-7.8,0-12.4,5.5-12.4,12.8c0,7.3,4.9,12.7,12.7,12.7c2.9,0,6.5-1.1,9.1-2.6l1.1,2.9
	C385.8,32.5,382.1,33.9,378.1,33.9"/>
<path fill="#14426F" d="M394.2,33.4V2.6h3.4v27.8h14.7v3H394.2z"/>
<path fill="#14426F" d="M417.9,33.4V2.6h18v3h-14.7v10.6h13.2v3h-13.2v11.1h14.7v3H417.9z"/>
<path fill="#14426F" d="M453.2,2.5c5.7,0.6,9.2,4.3,9.2,9.1c0,4.3-2.4,7.5-6.7,8.9l8.9,12.9h-4.1l-8.2-12.1c-0.7,0-1.3,0.1-2.1,0.1
	c-1,0-2.5,0-3.5-0.1v12.1h-3.4V2.5 M446.8,5.6v12.7c1,0.1,2.6,0.2,3.7,0.2c5.8,0,8.2-2.6,8.2-6.6c0-3.2-2.3-5.8-5.9-6.3"/>
<path fill="#14426F" d="M480.2,19.8v13.7h-3.4V19.7L466.1,2.6h3.8l8.8,14.3l8.7-14.3h3.7L480.2,19.8z"/>
<path fill="none" stroke="#ED1C24" stroke-width="0.1602" stroke-miterlimit="10" d="M140.7,6.8"/>
</svg>
